# xmcd CD database file
#
# Track frame offsets:
#	150
#	1193
#	31061
#	48039
#	59322
#	73680
#	91230
#	109260
#	122020
#	137454
#	154698
#	176440
#	194412
#	220940
#
# Disc length: 3949 seconds
#
# Revision: 0
# Processed by: cddbd v1.5.2PL0 Copyright (c) Steve Scherf et al.
# Submitted via: CDex 1.70beta2
#
DISCID=b10f6b0e
DTITLE=タイナカ彩智 - FlowerDance
DYEAR=2012
DGENRE=Merengue
TTITLE0=アントレ
TTITLE1=Flower Dance 
TTITLE2=大好きな彼は宇宙人
TTITLE3=Joyful 
TTITLE4=炭酸が飲みたい 
TTITLE5=魚 
TTITLE6=まぁいっか 
TTITLE7=のらねこ天国 
TTITLE8=ロンリーウーマン
TTITLE9=花火 (Album ver)
TTITLE10=ウェディングドレス 
TTITLE11=イッシンドウタイ 
TTITLE12=アダージョ
TTITLE13=Flower Dance(Music Video)
EXTD=YEAR: 2012
EXTT0=
EXTT1=
EXTT2=
EXTT3=
EXTT4=
EXTT5=
EXTT6=
EXTT7=
EXTT8=
EXTT9=
EXTT10=
EXTT11=
EXTT12=
EXTT13=
PLAYORDER=
